<svg width="24" height="24" viewBox="0 0 24 24" fill="none" xmlns="http://www.w3.org/2000/svg">
<path d="M8.5 10.5001H15.5M7 18.4301H11L15.45 21.3901C15.6002 21.4902 15.7747 21.5476 15.955 21.5563C16.1353 21.565 16.3145 21.5246 16.4736 21.4394C16.6328 21.3542 16.7658 21.2274 16.8585 21.0725C16.9512 20.9177 17.0001 20.7405 17 20.5601V18.4301C20 18.4301 22 16.4301 22 13.4301V7.43005C22 4.43005 20 2.43005 17 2.43005H7C4 2.43005 2 4.43005 2 7.43005V13.4301C2 16.4301 4 18.4301 7 18.4301Z" stroke="#3F3E3E" stroke-width="1.5" stroke-miterlimit="10" stroke-linecap="round" stroke-linejoin="round"/>
</svg>
