<svg width="24" height="24" viewBox="0 0 24 24" fill="none" xmlns="http://www.w3.org/2000/svg">
<path d="M8.57 15.27L15.11 8.73M9 2H15C20 2 22 4 22 9V15C22 20 20 22 15 22H9C4 22 2 20 2 15V9C2 4 4 2 9 2Z" stroke="#721393" stroke-width="1.5" stroke-linecap="round" stroke-linejoin="round"/>
<path d="M8.98 10.37C9.30622 10.37 9.61907 10.2404 9.84974 10.0098C10.0804 9.77911 10.21 9.46625 10.21 9.14003C10.21 8.81382 10.0804 8.50096 9.84974 8.27029C9.61907 8.03962 9.30622 7.91003 8.98 7.91003C8.65378 7.91003 8.34093 8.03962 8.11026 8.27029C7.87959 8.50096 7.75 8.81382 7.75 9.14003C7.75 9.46625 7.87959 9.77911 8.11026 10.0098C8.34093 10.2404 8.65378 10.37 8.98 10.37ZM15.52 16.09C15.8462 16.09 16.1591 15.9604 16.3897 15.7298C16.6204 15.4991 16.75 15.1863 16.75 14.86C16.75 14.5338 16.6204 14.221 16.3897 13.9903C16.1591 13.7596 15.8462 13.63 15.52 13.63C15.1938 13.63 14.8809 13.7596 14.6503 13.9903C14.4196 14.221 14.29 14.5338 14.29 14.86C14.29 15.1863 14.4196 15.4991 14.6503 15.7298C14.8809 15.9604 15.1938 16.09 15.52 16.09Z" stroke="#721393" stroke-width="1.5" stroke-linecap="round" stroke-linejoin="round"/>
</svg>
