<svg width="30" height="30" viewBox="0 0 30 30" fill="none" xmlns="http://www.w3.org/2000/svg">
<g clip-path="url(#clip0_9_317)">
<path d="M28.8213 9.16192C28.0658 7.37563 26.9845 5.77146 25.6073 4.39403C24.23 3.01658 22.6259 1.93503 20.8397 1.1794C18.9901 0.396914 17.0256 0.000117188 15 0C12.9755 0 11.0111 0.39668 9.16146 1.17899C7.37525 1.93447 5.77119 3.01588 4.39383 4.39315C3.01646 5.77043 1.93497 7.37443 1.17938 9.16058C0.396914 11.0102 0.000117213 12.9746 2.59629e-08 14.9991C-0.000117162 17.0238 0.396475 18.9883 1.17873 20.8381C1.93415 22.6244 3.01553 24.2286 4.3928 25.606C5.77008 26.9834 7.37411 28.065 9.16034 28.8206C11.01 29.6031 12.9745 29.9999 14.9999 30H15.0001C17.0247 30 18.989 29.6033 20.8387 28.821C22.6249 28.0656 24.2289 26.9841 25.6062 25.6069C26.9836 24.2297 28.0651 22.6257 28.8207 20.8395C29.6031 18.9899 29.9999 17.0254 30 15.0009C30.0001 12.9762 29.6035 11.0117 28.8213 9.16192ZM15.0001 28.6034H14.9992C11.3657 28.6032 7.94962 27.1879 5.3804 24.6184C2.81124 22.0489 1.39644 18.6328 1.39664 14.9992C1.39708 7.49874 7.49953 1.39667 15.0008 1.39667C18.6344 1.39688 22.0504 2.81206 24.6196 5.38154C27.1888 7.95105 28.6035 11.3672 28.6033 15.0008C28.6029 22.5013 22.5005 28.6034 15.0001 28.6034Z" fill="#262626"/>
<path d="M4.52649 11.6991C4.75207 12.2879 5.03013 12.8557 5.31712 13.4165C5.99907 14.7489 6.70134 16.0436 7.64291 17.2147C8.59445 18.3982 9.71786 19.5451 11.0412 20.3107C11.4093 20.5237 11.7962 20.7033 12.1993 20.8399C13.7543 21.3666 15.4598 21.3164 15.9865 20.9653C16.5133 20.6141 15.8862 18.3066 16.3628 18.0307C16.8393 17.7548 17.6921 18.3568 18.3191 18.9086C18.9462 19.4604 19.4227 19.9369 19.7739 20.3131C19.9938 20.5487 20.1486 20.8299 20.4353 20.998C20.9095 21.2759 21.5413 21.2451 22.0703 21.2466C22.3651 21.2474 22.6601 21.2484 22.955 21.2447C23.1543 21.2422 23.3537 21.2487 23.5528 21.2391C23.8801 21.2232 24.3081 21.094 24.2835 20.6845C24.2777 20.5878 24.2563 20.472 24.2178 20.3826C24.1351 20.1906 24.0187 19.9913 23.8935 19.824C23.2414 18.9524 22.8088 18.5072 22.4827 18.1561C22.1566 17.805 20.8148 16.5383 20.727 16.2875C20.6392 16.0367 20.611 15.9254 20.8602 15.5868C21.1095 15.2481 21.655 14.3938 22.0814 13.7793C22.3489 13.3939 22.5918 12.991 22.8318 12.5882C23.1148 12.1132 23.3809 11.6268 23.6077 11.1225C23.7091 10.8969 23.8012 10.6915 23.7384 10.4388C23.6963 10.2695 23.6011 10.1207 23.4238 10.0789C23.327 10.0561 23.2214 10.0538 23.1223 10.0538C22.7524 10.0538 21.7867 10.0538 21.7867 10.0538C21.6121 10.0538 21.4376 10.0513 21.263 10.0516C21.084 10.0519 20.9035 10.0505 20.7251 10.0658C20.4712 10.0875 20.3156 10.2833 20.1879 10.4807C20.0317 10.7223 19.8894 10.9736 19.7379 11.2182C19.6343 11.3853 19.5329 11.5538 19.4333 11.7234C19.2777 11.9882 19.1174 12.2502 18.957 12.5122C18.8905 12.6209 18.8237 12.7295 18.7581 12.8388C18.57 13.1522 16.9397 15.2967 16.6137 15.3846C16.2876 15.4724 16.1747 15.4473 16.1747 14.7826C16.1747 14.1179 16.1747 10.3432 16.1747 10.3432C16.1747 10.3432 16.1497 10.0521 15.8738 10.0521C15.5979 10.0521 14.3182 10.0521 14.3182 10.0521H11.6788C11.6788 10.0521 11.0581 10.0547 11.2775 10.6128C11.497 11.1709 12.146 11.3402 12.146 12.2713C12.146 13.2024 12.146 15.9207 12.146 15.9207C12.146 15.9207 12.0363 16.739 11.3277 16.0617C10.7694 15.5281 10.3093 14.8972 9.90282 14.243C9.48018 13.5628 9.13969 12.8562 8.83641 12.1159C8.74966 11.9042 8.66376 11.6921 8.57467 11.4814C8.48168 11.2614 8.38954 11.041 8.30036 10.8195C8.1968 10.5622 8.086 10.2258 7.80674 10.1073C7.66635 10.0478 7.51108 10.0507 7.36143 10.0507C6.80646 10.0509 6.25152 10.0524 5.69658 10.0514C5.53374 10.0511 5.37091 10.0509 5.20808 10.0513C4.82362 10.0522 4.34543 10.0409 4.25423 10.5212C4.20167 10.7978 4.30615 11.0931 4.3936 11.3522C4.43324 11.47 4.48213 11.5832 4.52649 11.6991Z" fill="#262626"/>
</g>
<defs>
<clipPath id="clip0_9_317">
<rect width="30" height="30" fill="white"/>
</clipPath>
</defs>
</svg>
